<?xml version="1.0" encoding="utf-8"?>
<!-- Generator: Adobe Illustrator 21.1.0, SVG Export Plug-In . SVG Version: 6.00 Build 0)  -->
<svg version="1.1" id="Layer_1" xmlns="http://www.w3.org/2000/svg" xmlns:xlink="http://www.w3.org/1999/xlink" x="0px" y="0px"
	 viewBox="0 0 2638.9 1153" style="enable-background:new 0 0 2638.9 1153;" xml:space="preserve">
<style type="text/css">
	.st0{fill:#007FBA;}
	.st1{fill:#FFC72C;}
	.st2{fill:#FFFFFF;}
</style>
<g>
	<path class="st0" d="M1148.5,576.1c0,315.9-256.1,572.1-572.1,572.1S4.3,892.1,4.3,576.1S260.5,4.1,576.4,4.1
		S1148.5,260.2,1148.5,576.1"/>
	<polygon class="st1" points="946,457.9 927,506.2 983,506.2 1002.1,457.9 	"/>
	<path class="st2" d="M394,499.6c-30.5-33-67.9-49.8-111.4-49.8c-46.5,0-86.4,16.7-118.6,49.5c-32.2,32.8-48.6,72.9-48.6,119.2
		s16.1,86.4,48,119.4c31.9,33.1,71,49.8,116.4,49.8c42.7,0,81.1-17.1,114.3-50.8v40.5h53.5V331.2H394L394,499.6L394,499.6z
		 M364.3,536.4c21.2,22.4,32,50.7,32,84.2s-11.6,61.4-34.5,83.2c-22.9,21.8-49.3,32.9-78.4,32.9c-31,0-57.9-11.8-80-35
		c-22.2-23.3-33.4-50.9-33.4-82.1s11-58.8,32.6-81.9c21.6-23,48.9-34.7,81.1-34.7S343.1,514.1,364.3,536.4"/>
	<path class="st2" d="M988.9,736.2c-10.9,3-22.5,4.6-33.5,4.6c-26.6,0-41.1-8.8-41.1-55.3V331.2h-54.1v126.7h-35.9l-19,48.4h54.9
		v177.5c0,48.4,9.7,104,85.6,104c18,0,32.7-2,45.1-6.1l2.4-0.8V735L988.9,736.2L988.9,736.2z"/>
	<path class="st2" d="M654.8,653.7c-3.1,7.8-7.6,19.9-13.3,36c-2.7,7.7-5.2,14.9-7.1,20.4c-4.9-14.2-14.2-40.5-21-56.4l-77.5-195.8
		h-56.8l124.9,317.3l0.9,2.2h57l125.8-319.6h-56.1L654.8,653.7L654.8,653.7z"/>
</g>
<g>
	<path class="st2" d="M1336.6,518.9h-14.7c-0.7-3.4-2.4-6.2-5-8.4c-2.6-2.2-5.7-3.3-9.1-3.3c-4.3,0-7.7,1.1-10.2,3.4
		c-2.5,2.3-3.8,5-3.8,8.3c0,3.1,1.3,5.8,3.8,8.2c2.5,2.4,7.4,4.7,14.8,7.1c17,5.5,25.5,14.8,25.5,28c0,8.1-2.7,14.5-8.1,19.3
		c-5.4,4.8-12.6,7.2-21.6,7.2s-16.6-2.4-21.8-7.2c-5.3-4.8-8.6-11.3-10.1-19.3h14.7c2.1,9.4,8,14.1,17.8,14.1
		c4.6,0,8.3-1.2,10.8-3.7c2.6-2.4,3.8-5.6,3.8-9.3c0-4-1.3-7.4-4-10s-7.9-5.2-15.6-7.8c-8.3-2.7-14.4-6.2-18.3-10.4
		c-3.9-4.3-5.9-9.7-5.9-16.3c0-6.6,2.4-12.4,7.2-17c4.8-4.6,11.6-6.9,20.3-6.9C1323.1,494.9,1332.9,502.9,1336.6,518.9L1336.6,518.9
		z"/>
	<path class="st2" d="M1369.6,585.6v-87.8h14.5v11h0.4c7-9.3,15.7-13.9,26.2-13.9c6.7,0,12.7,1.7,18,5.1c5.3,3.4,8.8,7.8,10.6,13
		c2.4-5,6.3-9.3,11.6-12.8c5.3-3.5,11.5-5.3,18.6-5.3c10.1,0,18.3,3.5,24.4,10.4c6.1,6.9,9.2,16.7,9.2,29.2v51.1h-14.5v-52.2
		c0-7.3-1.8-13.4-5.3-18.2c-3.5-4.8-8.8-7.2-15.8-7.2c-7,0-12.4,2.4-17,7.3c-4.6,4.9-6.9,12.1-6.9,21.6v48.8H1429v-52.2
		c0-7.4-1.9-13.6-5.7-18.3c-3.8-4.8-8.9-7.2-15.2-7.2c-7.5,0-13.3,2.6-17.6,7.7c-4.3,5.1-6.4,12.2-6.4,21.3v48.8L1369.6,585.6
		L1369.6,585.6z"/>
	<path class="st2" d="M1624.2,497.8v87.8h-14.5v-11.7h-0.4c-8.2,9.9-18.9,14.8-32.1,14.8c-12.3,0-22.9-4.4-31.8-13.1
		c-8.9-8.7-13.3-20.1-13.3-34s4.4-24.7,13.1-33.5c8.7-8.8,19.7-13.2,32.9-13.2c12.1,0,22.5,5.2,31.3,15.6h0.2v-12.6H1624.2
		L1624.2,497.8z M1555.6,517.7c-5.6,6.8-8.4,14.8-8.4,23.9s2.8,17.2,8.4,24c5.6,6.8,13.5,10.3,23.6,10.3c8.5,0,16-3.2,22.3-9.6
		c6.3-6.4,9.4-14.5,9.4-24.1c0-10.3-3-18.6-9.1-25c-6-6.4-13.5-9.6-22.3-9.6C1569.3,507.6,1561.2,511,1555.6,517.7L1555.6,517.7z"/>
	<path class="st2" d="M1705.9,495.5v13.4c-3.7-0.6-6.5-0.9-8.4-0.9c-6.7,0-12.2,2.6-16.3,7.7c-4.2,5.1-6.2,13-6.2,23.5v46.5h-14.5
		v-87.8h14.5v11h0.4c1.7-3.4,4.7-6.6,9-9.5c4.3-2.9,9-4.4,14.3-4.4C1701.4,494.9,1703.8,495.1,1705.9,495.5L1705.9,495.5z"/>
	<path class="st2" d="M1727.3,509.9v-12.1h11.5v-28h14.5v28h23.5v12.1h-23.5v46.4c0,6.8,1.1,11.6,3.2,14.2c2.1,2.6,5.6,3.9,10.5,3.9
		c3.5,0,7.1-0.5,10.6-1.5v11.9c-3.7,1.2-8.2,1.8-13.6,1.8c-9.8,0-16.4-2.7-20-8.3c-3.5-5.5-5.3-13.1-5.3-22.7v-45.8L1727.3,509.9
		L1727.3,509.9z"/>
	<path class="st2" d="M1863.3,628.7V497.8h14.5v12.5h0.4c8.7-10.3,19.7-15.4,33-15.4s24.2,4.6,32.2,13.9c8,9.3,12,20.2,12,32.8
		c0,13.3-4.2,24.5-12.7,33.5c-8.5,9-19.2,13.6-32,13.6s-24.1-4.9-32.4-14.8h-0.4v54.8L1863.3,628.7L1863.3,628.7z M1940.3,541.6
		c0-9.3-2.8-17.3-8.5-24c-5.7-6.7-13.6-10.1-23.7-10.1c-8.9,0-16.4,3.2-22.4,9.6c-6,6.4-9.1,14.8-9.1,25c0,10.3,3.1,17.8,9.4,24.2
		c6.3,6.4,13.8,9.5,22.4,9.5c10,0,17.8-3.4,23.5-10.3C1937.5,558.8,1940.3,550.8,1940.3,541.6L1940.3,541.6z"/>
	<path class="st2" d="M2023.1,494.9c7.6,0,14.3,1.5,20.2,4.4c5.9,2.9,10.4,6.7,13.7,11.4c3.2,4.6,5.6,9.5,7.2,14.6
		c1.6,5.1,2.4,10.2,2.4,15.3c0,2.3-0.1,4.1-0.4,5.3h-71.7c0,7.9,3.1,14.9,9.3,21s13.5,9.1,21.8,9.1c9,0,16.6-3.5,22.5-10.6h16.7
		c-3.4,6.5-8.4,12-14.9,16.6c-6.5,4.6-14.5,6.9-23.9,6.9c-13.8,0-25-4.6-33.6-13.7c-8.6-9.2-12.9-20.6-12.9-34.5
		c0-12.6,4-23.3,12.1-32.3C1999.7,499.4,2010.2,494.9,2023.1,494.9L2023.1,494.9z M2023.1,507.6c-7.9,0-14.5,2.6-19.6,7.8
		c-5.1,5.2-8.1,11.3-8.8,18.4h56.6c-0.7-7.2-3.7-13.4-8.9-18.5C2037.3,510.1,2030.8,507.6,2023.1,507.6L2023.1,507.6z"/>
	<path class="st2" d="M2090.8,541.6c0-13.4,4.5-24.6,13.5-33.4s20.1-13.3,33.4-13.3s24.8,4.5,33.6,13.4c8.9,8.9,13.3,20,13.3,33.4
		s-4.5,24.2-13.4,33.4c-8.9,9.2-20.1,13.7-33.5,13.7s-24.5-4.5-33.4-13.6C2095.3,566.1,2090.8,555,2090.8,541.6L2090.8,541.6z
		 M2105.8,541.6c0,9.7,3.1,17.7,9.4,24.2c6.3,6.5,13.8,9.7,22.4,9.7c9.2,0,16.8-3.2,22.8-9.7c6-6.5,9.1-14.5,9.1-24.2
		c0-9.7-3-17.5-8.9-24c-5.9-6.5-13.6-9.7-23-9.7s-16.9,3.2-22.9,9.5C2108.8,523.8,2105.8,531.9,2105.8,541.6L2105.8,541.6z"/>
	<path class="st2" d="M2214.8,628.7V497.8h14.5v12.5h0.4c8.7-10.3,19.7-15.4,33-15.4c13.3,0,24.2,4.6,32.2,13.9
		c8,9.3,12,20.2,12,32.8c0,13.3-4.2,24.5-12.7,33.5c-8.5,9-19.2,13.6-32,13.6s-24.1-4.9-32.4-14.8h-0.4v54.8L2214.8,628.7
		L2214.8,628.7z M2291.8,541.6c0-9.3-2.8-17.3-8.5-24c-5.7-6.7-13.6-10.1-23.7-10.1c-8.9,0-16.4,3.2-22.4,9.6
		c-6,6.4-9.1,14.8-9.1,25c0,10.3,3.1,17.8,9.4,24.2s13.8,9.5,22.4,9.5c10,0,17.8-3.4,23.5-10.3
		C2289,558.8,2291.8,550.8,2291.8,541.6L2291.8,541.6z"/>
	<path class="st2" d="M2337.1,585.6v-132h14.5v132H2337.1z"/>
	<path class="st2" d="M2425.4,494.9c7.6,0,14.3,1.5,20.2,4.4c5.9,2.9,10.4,6.7,13.7,11.4c3.2,4.6,5.6,9.5,7.2,14.6
		c1.6,5.1,2.4,10.2,2.4,15.3c0,2.3-0.1,4.1-0.4,5.3h-71.7c0,7.9,3.1,14.9,9.3,21c6.2,6,13.5,9.1,21.8,9.1c9,0,16.6-3.5,22.5-10.6
		h16.7c-3.4,6.5-8.4,12-14.9,16.6c-6.5,4.6-14.5,6.9-23.9,6.9c-13.8,0-25-4.6-33.6-13.7c-8.6-9.2-12.9-20.6-12.9-34.5
		c0-12.6,4-23.3,12.1-32.3C2402,499.4,2412.5,494.9,2425.4,494.9L2425.4,494.9z M2425.4,507.6c-7.9,0-14.5,2.6-19.6,7.8
		c-5.1,5.2-8.1,11.3-8.8,18.4h56.6c-0.7-7.2-3.7-13.4-8.9-18.5C2439.6,510.1,2433.1,507.6,2425.4,507.6L2425.4,507.6z"/>
	<path class="st2" d="M1336.6,712.8h-14.7c-0.7-3.4-2.4-6.2-5-8.4c-2.6-2.2-5.7-3.3-9.1-3.3c-4.3,0-7.7,1.1-10.2,3.4
		c-2.5,2.3-3.8,5-3.8,8.3c0,3.1,1.3,5.8,3.8,8.2c2.5,2.4,7.4,4.7,14.8,7.1c17,5.5,25.5,14.8,25.5,28c0,8.1-2.7,14.5-8.1,19.3
		c-5.4,4.8-12.6,7.2-21.6,7.2s-16.6-2.4-21.8-7.2c-5.3-4.8-8.6-11.3-10.1-19.3h14.7c2.1,9.4,8,14.1,17.8,14.1
		c4.6,0,8.3-1.2,10.8-3.7c2.6-2.4,3.8-5.6,3.8-9.3c0-4-1.3-7.4-4-10s-7.9-5.2-15.6-7.8c-8.3-2.7-14.4-6.2-18.3-10.4
		c-3.9-4.3-5.9-9.7-5.9-16.3c0-6.6,2.4-12.4,7.2-17c4.8-4.6,11.6-6.9,20.3-6.9C1323.1,688.8,1332.9,696.8,1336.6,712.8L1336.6,712.8
		z"/>
	<path class="st2" d="M1369.6,779.5v-87.8h14.5v11h0.4c7-9.3,15.7-13.9,26.2-13.9c6.7,0,12.7,1.7,18,5.1c5.3,3.4,8.8,7.8,10.6,13
		c2.4-5,6.3-9.3,11.6-12.8c5.3-3.5,11.5-5.3,18.6-5.3c10.1,0,18.3,3.5,24.4,10.4c6.1,6.9,9.2,16.7,9.2,29.2v51.1h-14.5v-52.2
		c0-7.3-1.8-13.4-5.3-18.2c-3.5-4.8-8.8-7.2-15.8-7.2c-7,0-12.4,2.4-17,7.3c-4.6,4.9-6.9,12.1-6.9,21.6v48.8H1429v-52.2
		c0-7.4-1.9-13.6-5.7-18.3c-3.8-4.8-8.9-7.2-15.2-7.2c-7.5,0-13.3,2.6-17.6,7.7c-4.3,5.1-6.4,12.2-6.4,21.3v48.8L1369.6,779.5
		L1369.6,779.5z"/>
	<path class="st2" d="M1624.2,691.7v87.8h-14.5v-11.7h-0.4c-8.2,9.9-18.9,14.8-32.1,14.8c-12.3,0-22.9-4.4-31.8-13.1
		c-8.9-8.7-13.3-20.1-13.3-34s4.4-24.7,13.1-33.5c8.7-8.8,19.7-13.2,32.9-13.2c12.1,0,22.5,5.2,31.3,15.6h0.2v-12.6H1624.2
		L1624.2,691.7z M1555.6,711.6c-5.6,6.8-8.4,14.8-8.4,23.9s2.8,17.2,8.4,24c5.6,6.8,13.5,10.3,23.6,10.3c8.5,0,16-3.2,22.3-9.6
		c6.3-6.4,9.4-14.5,9.4-24.1c0-10.3-3-18.6-9.1-25c-6-6.4-13.5-9.6-22.3-9.6C1569.3,701.4,1561.2,704.8,1555.6,711.6L1555.6,711.6z"
		/>
	<path class="st2" d="M1705.9,689.3v13.4c-3.7-0.6-6.5-0.9-8.4-0.9c-6.7,0-12.2,2.6-16.3,7.7c-4.2,5.1-6.2,13-6.2,23.5v46.5h-14.5
		v-87.8h14.5v11h0.4c1.7-3.4,4.7-6.6,9-9.5c4.3-2.9,9-4.4,14.3-4.4C1701.4,688.8,1703.8,689,1705.9,689.3L1705.9,689.3z"/>
	<path class="st2" d="M1727.3,703.8v-12.1h11.5v-28h14.5v28h23.5v12.1h-23.5v46.4c0,6.8,1.1,11.6,3.2,14.2c2.1,2.6,5.6,3.9,10.5,3.9
		c3.5,0,7.1-0.5,10.6-1.5v11.9c-3.7,1.2-8.2,1.8-13.6,1.8c-9.8,0-16.4-2.7-20-8.3c-3.5-5.5-5.3-13.1-5.3-22.7v-45.8L1727.3,703.8
		L1727.3,703.8z"/>
	<path class="st2" d="M1919.2,712.8h-14.7c-0.7-3.4-2.4-6.2-5-8.4c-2.6-2.2-5.7-3.3-9.1-3.3c-4.3,0-7.7,1.1-10.2,3.4
		c-2.5,2.3-3.8,5-3.8,8.3c0,3.1,1.3,5.8,3.8,8.2c2.5,2.4,7.4,4.7,14.8,7.1c17,5.5,25.5,14.8,25.5,28c0,8.1-2.7,14.5-8.1,19.3
		c-5.4,4.8-12.6,7.2-21.6,7.2s-16.6-2.4-21.8-7.2c-5.3-4.8-8.6-11.3-10.1-19.3h14.7c2.1,9.4,8,14.1,17.8,14.1
		c4.6,0,8.3-1.2,10.8-3.7c2.6-2.4,3.8-5.6,3.8-9.3c0-4-1.3-7.4-4-10s-7.9-5.2-15.6-7.8c-8.3-2.7-14.4-6.2-18.3-10.4
		c-3.9-4.3-5.9-9.7-5.9-16.3c0-6.6,2.4-12.4,7.2-17c4.8-4.6,11.6-6.9,20.3-6.9C1905.7,688.8,1915.6,696.8,1919.2,712.8L1919.2,712.8
		z"/>
	<path class="st2" d="M1946.2,735.5c0-13.4,4.5-24.6,13.5-33.4c9-8.9,20.1-13.3,33.4-13.3s24.8,4.5,33.6,13.4
		c8.9,8.9,13.3,20,13.3,33.4s-4.5,24.2-13.4,33.4c-8.9,9.2-20.1,13.7-33.5,13.7s-24.5-4.5-33.4-13.6
		C1950.7,760,1946.2,748.8,1946.2,735.5L1946.2,735.5z M1961.2,735.5c0,9.7,3.1,17.7,9.4,24.2c6.3,6.5,13.8,9.7,22.4,9.7
		c9.2,0,16.8-3.2,22.8-9.7c6-6.5,9.1-14.5,9.1-24.2c0-9.7-3-17.5-8.9-24c-5.9-6.5-13.6-9.7-23-9.7c-9.4,0-16.9,3.2-22.9,9.5
		C1964.2,717.7,1961.2,725.7,1961.2,735.5L1961.2,735.5z"/>
	<path class="st2" d="M2070.2,779.5v-132h14.5v132H2070.2z"/>
	<path class="st2" d="M2194.7,691.7v87.8h-14.5v-10.8h-0.4c-6.8,9.3-15.7,13.9-26.6,13.9c-8.9,0-16.7-3.2-23.4-9.6
		c-6.7-6.4-10-16.4-10-30v-51.3h14.5v50.2c0,8.8,1.9,15.6,5.8,20.3s9,7.2,15.5,7.2c7.7,0,13.7-2.6,18.1-7.9
		c4.3-5.3,6.5-12.9,6.5-22.9v-46.9L2194.7,691.7L2194.7,691.7z"/>
	<path class="st2" d="M2221.4,703.8v-12.1h11.5v-28h14.5v28h23.5v12.1h-23.5v46.4c0,6.8,1.1,11.6,3.2,14.2c2.1,2.6,5.6,3.9,10.5,3.9
		c3.5,0,7.1-0.5,10.6-1.5v11.9c-3.7,1.2-8.2,1.8-13.6,1.8c-9.8,0-16.4-2.7-20-8.3c-3.5-5.5-5.3-13.1-5.3-22.7v-45.8L2221.4,703.8
		L2221.4,703.8z"/>
	<path class="st2" d="M2300.6,779.5v-87.8h14.5v87.8H2300.6z"/>
	<path class="st2" d="M2345.3,735.5c0-13.4,4.5-24.6,13.5-33.4c9-8.9,20.1-13.3,33.4-13.3c13.3,0,24.8,4.5,33.6,13.4
		c8.9,8.9,13.3,20,13.3,33.4s-4.5,24.2-13.4,33.4c-8.9,9.2-20.1,13.7-33.5,13.7s-24.5-4.5-33.4-13.6
		C2349.8,760,2345.3,748.8,2345.3,735.5L2345.3,735.5z M2360.4,735.5c0,9.7,3.1,17.7,9.4,24.2c6.3,6.5,13.8,9.7,22.4,9.7
		c9.2,0,16.8-3.2,22.8-9.7c6-6.5,9.1-14.5,9.1-24.2c0-9.7-3-17.5-8.9-24c-5.9-6.5-13.6-9.7-23-9.7c-9.4,0-16.9,3.2-22.9,9.5
		C2363.4,717.7,2360.4,725.7,2360.4,735.5L2360.4,735.5z"/>
	<path class="st2" d="M2469.4,779.5v-87.8h14.5v11h0.4c7.2-9.3,16.4-13.9,27.7-13.9c9.3,0,17.4,3.2,24.3,9.6
		c6.9,6.4,10.4,16.4,10.4,30v51.1h-14.5v-50.2c0-8.8-2-15.6-6-20.3c-4-4.8-9.4-7.2-16.4-7.2c-8.1,0-14.4,2.7-19,8
		c-4.6,5.3-6.9,13-6.9,23v46.7H2469.4L2469.4,779.5z"/>
	<path class="st2" d="M2637.7,712.8H2623c-0.7-3.4-2.4-6.2-5-8.4c-2.6-2.2-5.7-3.3-9.1-3.3c-4.3,0-7.7,1.1-10.2,3.4
		c-2.5,2.3-3.8,5-3.8,8.3c0,3.1,1.3,5.8,3.8,8.2c2.5,2.4,7.4,4.7,14.8,7.1c17,5.5,25.5,14.8,25.5,28c0,8.1-2.7,14.5-8.1,19.3
		c-5.4,4.8-12.6,7.2-21.6,7.2s-16.6-2.4-21.8-7.2c-5.3-4.8-8.6-11.3-10.1-19.3h14.7c2.1,9.4,8,14.1,17.8,14.1
		c4.6,0,8.3-1.2,10.8-3.7c2.6-2.4,3.8-5.6,3.8-9.3c0-4-1.3-7.4-4-10s-7.9-5.2-15.6-7.8c-8.3-2.7-14.4-6.2-18.3-10.4
		c-3.9-4.3-5.9-9.7-5.9-16.3c0-6.6,2.4-12.4,7.2-17c4.8-4.6,11.6-6.9,20.3-6.9C2624.2,688.8,2634,696.8,2637.7,712.8L2637.7,712.8z"
		/>
	<circle class="st2" cx="2307.9" cy="662.1" r="9"/>
</g>
</svg>
